<?xml version="1.0" standalone="no"?>
<!DOCTYPE svg PUBLIC "-//W3C//DTD SVG 20010904//EN"
 "http://www.w3.org/TR/2001/REC-SVG-20010904/DTD/svg10.dtd">
<svg version="1.0" xmlns="http://www.w3.org/2000/svg"
 width="225.000000pt" height="225.000000pt" viewBox="0 0 225.000000 225.000000"
 preserveAspectRatio="xMidYMid meet">
<metadata>
Created by potrace 1.14, written by Peter Selinger 2001-2017
</metadata>
<g transform="translate(0.000000,225.000000) scale(0.100000,-0.100000)"
fill="#000000" stroke="none">
<path d="M117 2126 c-47 -17 -81 -47 -101 -91 -14 -29 -16 -137 -16 -904 0
-858 0 -872 20 -912 23 -44 48 -72 79 -88 14 -8 326 -11 1023 -11 l1003 0 45
31 c86 59 81 -11 78 991 l-3 885 -28 36 c-59 77 24 72 -1077 74 -817 2 -992 0
-1023 -11z"/>
</g>
</svg>
